<svg width="20" height="12" viewBox="0 0 20 12" fill="none" xmlns="http://www.w3.org/2000/svg">
<path fill-rule="evenodd" clip-rule="evenodd" d="M0.856934 5.88561C5.7629 -1.61657 14.6828 -1.86152 19.1426 5.88561C14.6828 13.8159 5.7629 13.8159 0.856934 5.88561ZM13.7905 5.97704C13.7905 8.14176 12.1931 9.89661 10.2227 9.89661C8.25202 9.89661 6.65465 8.14176 6.65465 5.97704C6.65465 3.8126 8.25202 2.05776 10.2227 2.05776C12.1931 2.05776 13.7905 3.8126 13.7905 5.97704ZM10.223 7.93696C11.2082 7.93696 12.007 7.05968 12.007 5.97732C12.007 4.89496 11.2082 4.01768 10.223 4.01768C9.23779 4.01768 8.43896 4.89496 8.43896 5.97732C8.43896 7.05968 9.23779 7.93696 10.223 7.93696Z" fill="#aaaaaa"/>
</svg>
