<svg width="19" height="21" viewBox="0 0 19 21" fill="none" xmlns="http://www.w3.org/2000/svg">
<path fill-rule="evenodd" clip-rule="evenodd" d="M17 8.5C17 12.0898 14.0898 15 10.5 15C6.91016 15 4 12.0898 4 8.5C4 4.91016 6.91016 2 10.5 2C14.0898 2 17 4.91016 17 8.5ZM19 8.5C19 13.1943 15.1943 17 10.5 17C9.03076 17 7.64844 16.6272 6.44287 15.9712L1.70703 20.707L0.292969 19.293L4.78955 14.7961C3.07617 13.241 2 10.9963 2 8.5C2 3.80566 5.80566 0 10.5 0C15.1943 0 19 3.80566 19 8.5Z" fill="#aaaaaa"/>
</svg>
