<svg width="20" height="14" viewBox="0 0 20 14" fill="none" xmlns="http://www.w3.org/2000/svg">
<path fill-rule="evenodd" clip-rule="evenodd" d="M0.857178 0H8.38647L8.65552 1.64697H19.1428V14H0.857178V0ZM9.7312 3.94141C10.2834 3.94141 10.7312 4.38916 10.7312 4.94141V7.09814H12.8237C13.376 7.09814 13.8237 7.5459 13.8237 8.09814C13.8237 8.65039 13.376 9.09814 12.8237 9.09814H10.7312V11.2554C10.7312 11.8076 10.2834 12.2554 9.7312 12.2554C9.17896 12.2554 8.7312 11.8076 8.7312 11.2554V9.09814H6.63892C6.08667 9.09814 5.63892 8.65039 5.63892 8.09814C5.63892 7.5459 6.08667 7.09814 6.63892 7.09814H8.7312V4.94141C8.7312 4.38916 9.17896 3.94141 9.7312 3.94141Z" fill="#aaaaaa"/>
</svg>
