<svg width="39" height="39" viewBox="0 0 39 39" fill="none" xmlns="http://www.w3.org/2000/svg">
<path fill-rule="evenodd" clip-rule="evenodd" d="M38.5605 2.56055C39.1465 1.9751 39.1465 1.0249 38.5605 0.439453C37.9751 -0.146484 37.0249 -0.146484 36.4395 0.439453L19.5 17.3789L2.56055 0.439453C1.9751 -0.146484 1.0249 -0.146484 0.439453 0.439453C-0.146484 1.0249 -0.146484 1.9751 0.439453 2.56055L17.3789 19.5L0.439453 36.4395C-0.146484 37.0249 -0.146484 37.9751 0.439453 38.5605C1.0249 39.1465 1.9751 39.1465 2.56055 38.5605L19.5 21.6211L36.4395 38.5605C37.0249 39.1465 37.9751 39.1465 38.5605 38.5605C38.8691 38.2524 39.0151 37.8428 38.9985 37.439C38.9839 37.0757 38.8379 36.7168 38.5605 36.4395L21.6211 19.5L38.5605 2.56055Z" fill="white"/>
</svg>
